<?xml version="1.0" encoding="UTF-8" standalone="no"?>
<svg
   height="48"
   width="48"
   version="1.1"
   id="svg4"
   sodipodi:docname="search.svg"
   inkscape:version="1.2 (dc2aedaf03, 2022-05-15)"
   xmlns:inkscape="http://www.inkscape.org/namespaces/inkscape"
   xmlns:sodipodi="http://sodipodi.sourceforge.net/DTD/sodipodi-0.dtd"
   xmlns="http://www.w3.org/2000/svg"
   xmlns:svg="http://www.w3.org/2000/svg">
  <defs
     id="defs8" />
  <sodipodi:namedview
     id="namedview6"
     pagecolor="#ffffff"
     bordercolor="#000000"
     borderopacity="0.25"
     inkscape:showpageshadow="2"
     inkscape:pageopacity="0.0"
     inkscape:pagecheckerboard="0"
     inkscape:deskcolor="#d1d1d1"
     showgrid="false"
     inkscape:zoom="17.4375"
     inkscape:cx="23.971326"
     inkscape:cy="24.028674"
     inkscape:window-width="1920"
     inkscape:window-height="1017"
     inkscape:window-x="1912"
     inkscape:window-y="-8"
     inkscape:window-maximized="1"
     inkscape:current-layer="svg4" />
  <path
     d="M39.8 41.95 26.65 28.8q-1.5 1.3-3.5 2.025-2 .725-4.25.725-5.4 0-9.15-3.75T6 18.75q0-5.3 3.75-9.05 3.75-3.75 9.1-3.75 5.3 0 9.025 3.75 3.725 3.75 3.725 9.05 0 2.15-.7 4.15-.7 2-2.1 3.75L42 39.75Zm-20.95-13.4q4.05 0 6.9-2.875Q28.6 22.8 28.6 18.75t-2.85-6.925Q22.9 8.95 18.85 8.95q-4.1 0-6.975 2.875T9 18.75q0 4.05 2.875 6.925t6.975 2.875Z"
     id="path2"
     style="fill:#f8e7e2;fill-opacity:1" />
</svg>
