<?xml version="1.0" encoding="utf-8"?>
<!-- Generator: Adobe Illustrator 19.2.0, SVG Export Plug-In . SVG Version: 6.00 Build 0)  -->
<svg version="1.1" id="Layer_1" xmlns="http://www.w3.org/2000/svg" xmlns:xlink="http://www.w3.org/1999/xlink" x="0px" y="0px"
	 viewBox="0 0 960 960" style="enable-background:new 0 0 960 960;" xml:space="preserve">
<style type="text/css">
	.st0{fill:#6DBCDB;}
	.st1{fill:#8BD8EF;}
	.st2{fill:#448BB7;}
	.st3{font-family:'MyriadPro-Bold';}
	.st4{font-size:252.4637px;}
	.st5{fill:#E6E6E6;}
</style>
<g>
	<path class="st0" d="M660.7,486.3l47.6-103.5c3.8-8.2,2-17.9-4.3-24.3L578.9,233.4c-6.4-6.4-16.1-8.1-24.3-4.3l-103.5,47.6
		c-2.3,1.1-4.4,2.5-6.2,4.3L166.2,559.7c-8.4,8.4-8.4,22.1,0,30.5l180.9,180.9c8.4,8.4,22.1,8.4,30.5,0l278.7-278.7
		C658.2,490.7,659.7,488.6,660.7,486.3z M563.1,374.3c-12.5-12.5-12.5-32.7,0-45.2s32.7-12.5,45.2,0s12.5,32.7,0,45.2
		S575.6,386.8,563.1,374.3z"/>
	<path class="st1" d="M345.5,722.3L211.6,588.4c-7.8-7.8-7.8-20.5,0-28.4l220.8-220.8c7.8-7.8,20.5-7.8,28.4,0l133.9,133.9
		c7.8,7.8,7.8,20.5,0,28.4L373.9,722.3C366,730.1,353.3,730.1,345.5,722.3z"/>
	<text transform="matrix(0.7071 0.7071 -0.7071 0.7071 303.6358 532.6573)" class="st2 st3 st4">$</text>
	<path class="st5" d="M781.6,200.9c-33.2-33.2-100.3-20.3-149.4,28.9c-10,10-18.4,20.6-25.3,31.6c-12.1,19.3-19.4,39.5-21.4,58.4
		c-2.5,23.1,3,44.1,17.3,58.8c1.9-1.2,3.7-2.6,5.4-4.3c1.7-1.7,3.1-3.5,4.4-5.5c-11.1-11.4-15.4-27.8-13.8-46.2
		c1.5-16.3,7.6-34.1,18-51.3c6.7-11,15.1-21.8,25.1-31.8c43.8-43.8,102-56.7,129.9-28.9c27.9,27.9,14.9,86.1-28.9,129.9
		c-10.6,10.6-22.1,19.4-33.8,26.3c1.7,5.1,1.5,10.8-0.8,15.9l-0.1,0.2c15.5-7.9,30.7-18.8,44.5-32.6
		C801.9,301.2,814.9,234.2,781.6,200.9z"/>
</g>
</svg>
